<mxfile host="app.diagrams.net" modified="2024-06-28T12:16:54.818Z" agent="Mozilla/5.0 (Macintosh; Intel Mac OS X 10_15_7) AppleWebKit/537.36 (KHTML, like Gecko) Chrome/126.0.0.0 Safari/537.36" version="24.6.4" etag="7bztFnlVzfg7e5LL4wGH" type="github">
  <diagram name="Page-1" id="WRprl8nBM7J1lPzbPuff">
    <mxGraphModel>
      <root>
        <mxCell id="0" />
        <mxCell id="1" parent="0" />
      </root>
    </mxGraphModel>
  </diagram>
</mxfile>
